<?xml version="1.0" encoding="utf-8"?>
<!-- Generator: Adobe Illustrator 24.3.0, SVG Export Plug-In . SVG Version: 6.00 Build 0)  -->
<svg version="1.1" id="Capa_1" xmlns="http://www.w3.org/2000/svg" xmlns:xlink="http://www.w3.org/1999/xlink" x="0px" y="0px"
	 viewBox="0 0 512 512" style="enable-background:new 0 0 512 512;" xml:space="preserve">
<style type="text/css">
	.st0{opacity:0.1;fill:#2626BC;enable-background:new    ;}
	.st1{fill:#93C7EE;}
	.st2{fill:#FFFFFF;}
	.st3{opacity:0.2;fill:#3FABFE;}
	.st4{fill:#3FABFE;}
	.st5{fill:#8399FE;}
	.st6{fill:#01ECA5;}
	.st7{fill:#6583FE;}
	.st8{fill:#F26766;}
	.st9{fill:#4369FD;}
</style>
<path class="st0" d="M373.6,146.8C373.6,146.8,373.6,146.8,373.6,146.8l0-78.4c0-5.5-4.5-10-10-10H148.5c-5.5,0-10,4.5-10,10v407.8
	c0,3.7,3.9,6.1,7.3,4.5l14-7.1c1.4-0.7,3.1-0.7,4.6,0l19,9.7c1.4,0.7,3.1,0.7,4.6,0l19-9.7c1.4-0.7,3.1-0.7,4.5,0l19,9.7
	c1.4,0.7,3.1,0.7,4.5,0l19-9.7c1.4-0.7,3.1-0.7,4.6,0l19,9.7c1.4,0.7,3.1,0.7,4.5,0l19-9.7c1.4-0.7,3.1-0.7,4.5,0l19,9.7
	c1.4,0.7,3.1,0.7,4.5,0l19-9.7c1.4-0.7,3.1-0.7,4.5,0l14,7.1c3.3,1.7,7.3-0.7,7.3-4.5V253.3h0c29.4,0,53.3-23.9,53.3-53.3
	C426.8,170.6,403,146.8,373.6,146.8L373.6,146.8z"/>
<g>
	<path class="st1" d="M471.5,133.3C406.1,83,342.6,124,271.8,109.5C200.6,94.9,172.2,46.3,91,68.8C19,88.6-24.6,168.3,14.9,235
		c11.3,19,30.5,33.4,38.3,54.6c12.7,34.3-6.6,60.7-2.8,94.4C66,524.1,280,469.8,358.7,426.2C482.2,357.9,565.7,205.8,471.5,133.3z"
		/>
</g>
<path class="st2" d="M373.5,43.3v407.8c0,3.7-3.9,6.2-7.3,4.5l-14-7.1c-1.4-0.7-3.1-0.7-4.5,0l-19,9.7c-1.4,0.7-3.1,0.7-4.5,0
	l-19-9.7c-1.4-0.7-3.1-0.7-4.5,0l-19,9.7c-1.4,0.7-3.1,0.7-4.5,0l-19-9.7c-1.4-0.7-3.1-0.7-4.6,0l-19,9.7c-1.4,0.7-3.1,0.7-4.5,0
	l-19-9.7c-1.4-0.7-3.1-0.7-4.5,0l-19,9.7c-1.4,0.7-3.1,0.7-4.6,0l-19-9.7c-1.4-0.7-3.1-0.7-4.6,0l-14,7.1c-3.3,1.7-7.3-0.7-7.3-4.5
	V43.3c0-5.5,4.5-10,10-10h215.1C369.1,33.3,373.6,37.8,373.5,43.3L373.5,43.3z"/>
<path class="st3" d="M373.5,144.6v106.5c-29.4,0-53.3-23.9-53.3-53.3S344.1,144.6,373.5,144.6z"/>
<path class="st4" d="M279.5,463.7c-1.6,0-3.1-0.4-4.5-1.1l-19-9.7l-19,9.7c-2.8,1.5-6.2,1.5-9.1,0l-19-9.7l-19,9.7
	c-2.8,1.5-6.2,1.5-9.1,0l-19-9.7l-14,7.1c-3.1,1.6-6.8,1.5-9.8-0.4s-4.8-5-4.8-8.5V43.3c0-8.3,6.7-15,15-15h49c2.8,0,5,2.2,5,5
	s-2.2,5-5,5h-49c-2.8,0-5,2.2-5,5v407.8l14-7.1c2.8-1.5,6.2-1.5,9.1,0l19,9.7l19-9.7c2.8-1.5,6.2-1.5,9.1,0l19,9.7l19-9.7
	c2.8-1.5,6.2-1.5,9.1,0l19,9.7l19-9.7c2.8-1.5,6.2-1.5,9.1,0l19,9.7l19-9.7c2.8-1.5,6.2-1.5,9.1,0l14,7.1V257.9c0-2.8,2.2-5,5-5
	s5,2.2,5,5v193.2c0,3.5-1.8,6.7-4.8,8.5c-3,1.8-6.6,2-9.8,0.4l-14-7.1l-19,9.7c-2.8,1.5-6.2,1.5-9.1,0l-19-9.7l-19,9.7
	C282.6,463.3,281.1,463.7,279.5,463.7L279.5,463.7z"/>
<g>
	<g>
		<g>
			<path class="st5" d="M261,217.9h-86.5c-2.8,0-5-2.2-5-5s2.2-5,5-5H261c2.8,0,5,2.2,5,5S263.8,217.9,261,217.9z"/>
		</g>
		<g>
			<path class="st6" d="M186,197.9h-11.5c-2.8,0-5-2.2-5-5s2.2-5,5-5H186c2.8,0,5,2.2,5,5S188.8,197.9,186,197.9z"/>
		</g>
	</g>
	<g>
		<g>
			<path class="st5" d="M281,263.3H174.5c-2.8,0-5-2.2-5-5s2.2-5,5-5H281c2.8,0,5,2.2,5,5C286,261.1,283.8,263.3,281,263.3z"/>
		</g>
		<g>
			<path class="st6" d="M186,243.3h-11.5c-2.8,0-5-2.2-5-5s2.2-5,5-5H186c2.8,0,5,2.2,5,5S188.8,243.3,186,243.3z"/>
		</g>
	</g>
	<g>
		<g>
			<path class="st5" d="M271,308.7h-96.5c-2.8,0-5-2.2-5-5s2.2-5,5-5H271c2.8,0,5,2.2,5,5S273.8,308.7,271,308.7z"/>
		</g>
		<g>
			<path class="st6" d="M186,288.7h-11.5c-2.8,0-5-2.2-5-5s2.2-5,5-5H186c2.8,0,5,2.2,5,5S188.8,288.7,186,288.7z"/>
		</g>
	</g>
	<g>
		<g>
			<path class="st5" d="M231,354.1h-56.5c-2.8,0-5-2.2-5-5s2.2-5,5-5H231c2.8,0,5,2.2,5,5S233.8,354.1,231,354.1z"/>
		</g>
		<g>
			<path class="st5" d="M276.8,354.1h-21.5c-2.8,0-5-2.2-5-5s2.2-5,5-5h21.5c2.8,0,5,2.2,5,5S279.5,354.1,276.8,354.1z"/>
		</g>
		<g>
			<path class="st6" d="M186,334.1h-11.5c-2.8,0-5-2.2-5-5s2.2-5,5-5H186c2.8,0,5,2.2,5,5S188.8,334.1,186,334.1z"/>
		</g>
	</g>
	<g>
		<g>
			<g>
				<path class="st5" d="M334.6,217.9h-16.5c-2.8,0-5-2.2-5-5s2.2-5,5-5h16.5c2.8,0,5,2.2,5,5S337.4,217.9,334.6,217.9z"/>
			</g>
		</g>
		<g>
			<g>
				<path class="st7" d="M339.6,212.9c0,2.8-2.2,5-5,5h-10.5c-1.3-3.2-2.3-6.5-3-10h13.4C337.4,207.9,339.6,210.1,339.6,212.9
					L339.6,212.9z"/>
			</g>
		</g>
		<g>
			<g>
				<path class="st5" d="M334.6,263.3h-16.5c-2.8,0-5-2.2-5-5s2.2-5,5-5h16.5c2.8,0,5,2.2,5,5C339.6,261.1,337.4,263.3,334.6,263.3z
					"/>
			</g>
		</g>
		<g>
			<g>
				<path class="st5" d="M334.6,308.7h-16.5c-2.8,0-5-2.2-5-5s2.2-5,5-5h16.5c2.8,0,5,2.2,5,5S337.4,308.7,334.6,308.7z"/>
			</g>
		</g>
		<g>
			<g>
				<path class="st5" d="M334.6,354.1h-16.5c-2.8,0-5-2.2-5-5s2.2-5,5-5h16.5c2.8,0,5,2.2,5,5S337.4,354.1,334.6,354.1z"/>
			</g>
		</g>
	</g>
	<g>
		<path class="st6" d="M333,334.2c-2.8,0-5-2.2-5-5V329c0-2.8,2.2-5,5-5s5,2.2,5,5v0.1C338,331.9,335.7,334.2,333,334.2z"/>
	</g>
	<g>
		<g>
			<path class="st5" d="M334.6,412h-24.1c-2.8,0-5-2.2-5-5s2.2-5,5-5h24.1c2.8,0,5,2.2,5,5S337.4,412,334.6,412L334.6,412z"/>
		</g>
	</g>
	<g>
		<g>
			<path class="st5" d="M208.6,412h-34.1c-2.8,0-5-2.2-5-5s2.2-5,5-5h34.1c2.8,0,5,2.2,5,5S211.4,412,208.6,412z"/>
		</g>
	</g>
	<g>
		<path class="st6" d="M333,288.7c-2.8,0-5-2.2-5-5v-0.1c0-2.8,2.2-5,5-5s5,2.2,5,5v0.1C338,286.5,335.7,288.7,333,288.7z"/>
	</g>
	<g>
		<path class="st6" d="M333,243.3c-2.8,0-5-2.2-5-5v-0.1c0-2.8,2.2-5,5-5s5,2.2,5,5v0.1C338,241.1,335.7,243.3,333,243.3z"/>
	</g>
	<g>
		<path class="st6" d="M333,197.9c-2.8,0-5-2.2-5-5v-0.1c0-2.8,2.2-5,5-5s5,2.2,5,5v0.1C338,195.7,335.7,197.9,333,197.9z"/>
	</g>
</g>
<circle class="st8" cx="373.6" cy="175" r="53.3"/>
<path class="st4" d="M378.6,117V43.3c0-8.3-6.7-15-15-15H226.7c-2.8,0-5,2.2-5,5s2.2,5,5,5h136.9c2.8,0,5,2.2,5,5V117
	c-29.8,2.5-53.3,27.6-53.3,58c0,32.1,26.1,58.3,58.3,58.3s58.3-26.1,58.3-58.3C431.8,144.6,408.3,119.5,378.6,117z M373.6,223.3
	c-26.6,0-48.3-21.7-48.3-48.3s21.7-48.3,48.3-48.3s48.3,21.7,48.3,48.3S400.2,223.3,373.6,223.3z"/>
<path class="st2" d="M380.1,170h-1.5v-10.2h9.5c2.8,0,5-2.2,5-5s-2.2-5-5-5h-9.5v-2.5c0-2.8-2.2-5-5-5s-5,2.2-5,5v2.5H367
	c-8.3,0-15.1,6.8-15.1,15.1S358.7,180,367,180h1.5v10.2h-9.5c-2.8,0-5,2.2-5,5s2.2,5,5,5h9.5v2.5c0,2.8,2.2,5,5,5s5-2.2,5-5v-2.5
	h1.5c8.3,0,15.1-6.8,15.1-15.1S388.4,170,380.1,170z M367,170c-2.8,0-5.1-2.3-5.1-5.1s2.3-5.1,5.1-5.1h1.5V170H367z M380.1,190.2
	h-1.5V180h1.5c2.8,0,5.1,2.3,5.1,5.1S382.9,190.2,380.1,190.2z"/>
<g>
	<path class="st5" d="M276.8,158.7h-41.5c-2.8,0-5-2.2-5-5s2.2-5,5-5h41.5c2.8,0,5,2.2,5,5S279.5,158.7,276.8,158.7z"/>
</g>
<g>
	<path class="st9" d="M304.3,121.8h-96.5c-2.8,0-5-2.2-5-5s2.2-5,5-5h96.5c2.8,0,5,2.2,5,5S307,121.8,304.3,121.8z"/>
</g>
<g>
	<path class="st9" d="M329.3,99.8H182.7c-2.8,0-5-2.2-5-5s2.2-5,5-5h146.5c2.8,0,5,2.2,5,5S332,99.8,329.3,99.8z"/>
</g>
<g>
	<path class="st6" d="M186,77.9h-11.5c-2.8,0-5-2.2-5-5s2.2-5,5-5H186c2.8,0,5,2.2,5,5S188.8,77.9,186,77.9z"/>
</g>
<path class="st8" d="M411.2,82.4c-3.7,0-7.4-1.4-10.3-4.2c-5.7-5.7-5.7-14.9,0-20.5s14.9-5.7,20.5,0c5.7,5.7,5.7,14.9,0,20.5
	C418.6,81,414.9,82.4,411.2,82.4L411.2,82.4z M411.2,63.4c-1.2,0-2.3,0.4-3.2,1.3c-1.8,1.8-1.8,4.6,0,6.4c1.8,1.8,4.6,1.8,6.4,0
	c1.8-1.8,1.8-4.6,0-6.4C413.5,63.8,412.3,63.4,411.2,63.4z"/>
<path class="st8" d="M436.3,131.3c-3.7,0-7.4-1.4-10.3-4.2c-2.7-2.7-4.2-6.4-4.2-10.3s1.5-7.5,4.2-10.3c5.7-5.7,14.9-5.7,20.5,0
	c2.7,2.7,4.2,6.4,4.2,10.3c0,3.9-1.5,7.5-4.2,10.3C443.7,129.9,440,131.3,436.3,131.3z M436.3,112.3c-1.2,0-2.3,0.4-3.2,1.3
	c-0.9,0.8-1.3,2-1.3,3.2s0.5,2.3,1.3,3.2c1.8,1.8,4.6,1.8,6.4,0c0.9-0.8,1.3-2,1.3-3.2s-0.5-2.3-1.3-3.2
	C438.6,112.7,437.5,112.3,436.3,112.3z"/>
<path class="st8" d="M105.4,236.8c-3.7,0-7.4-1.4-10.3-4.2c-5.7-5.7-5.7-14.9,0-20.5c5.7-5.7,14.9-5.7,20.5,0
	c5.7,5.7,5.7,14.9,0,20.5C112.8,235.3,109.1,236.8,105.4,236.8z M105.4,217.8c-1.2,0-2.3,0.4-3.2,1.3c-1.8,1.8-1.8,4.6,0,6.4
	c1.8,1.8,4.6,1.8,6.4,0c1.8-1.8,1.8-4.6,0-6.4C107.7,218.2,106.5,217.8,105.4,217.8z"/>
<path class="st8" d="M98.9,281.7c-1.3,0-2.6-0.5-3.5-1.5l-6-6l-6,6c-2,2-5.1,2-7.1,0c-2-2-2-5.1,0-7.1l9.5-9.5c2-2,5.1-2,7.1,0
	l9.5,9.5c2,2,2,5.1,0,7.1C101.5,281.2,100.2,281.7,98.9,281.7z"/>
<path class="st8" d="M426.8,426.5c-1.3,0-2.6-0.5-3.5-1.5l-6-6l-6,6c-2,2-5.1,2-7.1,0c-2-2-2-5.1,0-7.1l9.5-9.5c2-2,5.1-2,7.1,0
	l9.5,9.5c2,2,2,5.1,0,7.1C429.4,426,428.1,426.5,426.8,426.5z"/>
</svg>
